<svg width="40" height="36" viewBox="0 0 40 36" fill="none" xmlns="http://www.w3.org/2000/svg">
<path d="M1.12207 10.6552L19.5638 36M1.12207 10.6552L11.4277 13.6724M1.12207 10.6552L11.4277 1M19.5638 36L11.4277 13.6724M19.5638 36V14.8793M19.5638 36L29.8695 13.6724M19.5638 36L39.0903 10.6552M11.4277 13.6724L19.5638 14.8793M11.4277 13.6724V1M19.5638 14.8793L29.8695 13.6724M19.5638 14.8793L11.4277 1M19.5638 14.8793L27.1574 1.60345M29.8695 13.6724L39.0903 10.6552M29.8695 13.6724L27.1574 1.60345M39.0903 10.6552L27.1574 1.60345M11.4277 1L27.1574 1.60345" stroke="#302207" stroke-width="1.6" stroke-linejoin="round"/>
</svg>
