<svg width="359" height="84" viewBox="0 0 359 84" fill="none" xmlns="http://www.w3.org/2000/svg">
<path d="M75.2941 40.0871C75.2941 53.39 70.8123 64.1742 65.2838 64.1742C59.7554 64.1742 55.2736 53.39 55.2736 40.0871C55.2736 26.7842 59.7554 16 65.2838 16C70.8123 16 75.2941 26.7842 75.2941 40.0871Z" fill="#E7DFD1"/>
<path d="M68.7249 40.0871C68.7249 45.0973 67.1843 49.1588 65.2838 49.1588C63.3834 49.1588 61.8428 45.0973 61.8428 40.0871C61.8428 35.0769 63.3834 31.0153 65.2838 31.0153C67.1843 31.0153 68.7249 35.0769 68.7249 40.0871Z" fill="#BFAC89"/>
<path d="M55.2736 40.0871C55.2736 26.7842 59.7554 16 65.2838 16H29.6224C22.0208 16 15.8584 26.7842 15.8584 40.0871L15.8584 81.3324C16.5883 80.7067 18.4861 79.4554 20.2379 79.4554C22.4276 79.4554 22.7404 81.3324 24.6173 81.3324C26.4943 81.3324 27.1199 79.4554 29.3096 79.4554C31.4994 79.4554 32.125 81.3324 34.0019 81.3324C35.8788 81.3324 37.1301 79.4554 38.6942 79.4554C40.2583 79.4554 41.8224 81.3324 43.6993 81.3324C45.5762 81.3324 46.5147 79.4554 48.3916 79.4554C51.207 79.4554 51.207 81.5 55.2736 81.5V64.1742V40.0871Z" fill="white"/>
<path d="M65.2838 64.1742C59.7554 64.1742 55.2736 53.39 55.2736 40.0871V64.1742H65.2838Z" fill="#BFAC89"/>
<path d="M65.2838 64.1742C70.8123 64.1742 75.2941 53.39 75.2941 40.0871C75.2941 26.7842 70.8123 16 65.2838 16M65.2838 64.1742C59.7554 64.1742 55.2736 53.39 55.2736 40.0871M65.2838 64.1742H55.2736M55.2736 40.0871C55.2736 26.7842 59.7554 16 65.2838 16M55.2736 40.0871V64.1742M65.2838 16H29.6224C22.0208 16 15.8584 26.7842 15.8584 40.0871L15.8584 81.3324C16.5883 80.7067 18.4861 79.4554 20.2379 79.4554C22.4276 79.4554 22.7404 81.3324 24.6173 81.3324C26.4943 81.3324 27.1199 79.4554 29.3096 79.4554C31.4994 79.4554 32.125 81.3324 34.0019 81.3324C35.8788 81.3324 37.1301 79.4554 38.6942 79.4554C40.2583 79.4554 41.8224 81.3324 43.6993 81.3324C45.5762 81.3324 46.5147 79.4554 48.3916 79.4554C51.207 79.4554 51.207 81.5 55.2736 81.5V64.1742M68.7249 40.0871C68.7249 45.0973 67.1843 49.1588 65.2838 49.1588C63.3834 49.1588 61.8428 45.0973 61.8428 40.0871C61.8428 35.0769 63.3834 31.0153 65.2838 31.0153C67.1843 31.0153 68.7249 35.0769 68.7249 40.0871Z" stroke="#302207" stroke-width="1.87692"/>
<path d="M45.2637 39.1484C45.2637 39.1484 47.7662 39.4613 50.2688 39.1484" stroke="#302207" stroke-width="1.87692" stroke-linecap="round"/>
<path d="M15.8584 39.1484C15.8584 39.1484 18.361 39.4613 20.8635 39.1484" stroke="#302207" stroke-width="1.87692" stroke-linecap="round"/>
<path d="M25.2432 39.1484C25.2432 39.1484 27.7457 39.4613 30.2483 39.1484" stroke="#302207" stroke-width="1.87692" stroke-linecap="round"/>
<path d="M35.252 38.6631C35.252 38.6631 37.7545 38.3503 40.2571 38.6631" stroke="#302207" stroke-width="1.87692" stroke-linecap="round"/>
<path d="M95.8582 28.6082L92.5667 27.7461C92.5667 27.6155 92.5928 27.3934 92.645 27.0799C92.6973 26.7403 92.8671 26.5705 93.1544 26.5705C93.1544 26.5705 93.2328 26.5705 93.3896 26.5705C93.5463 26.5705 93.912 26.5836 94.4867 26.6097C95.0614 26.6358 95.9627 26.675 97.1905 26.7273L103.382 26.5705C105.08 26.5705 106.53 26.9232 107.731 27.6285C108.959 28.3339 109.886 29.2874 110.513 30.489C111.166 31.6907 111.493 33.0361 111.493 34.5251C111.493 35.8574 111.127 37.1374 110.396 38.3652C109.69 39.5669 108.606 40.5857 107.143 41.4216C105.707 42.2315 103.878 42.7409 101.658 42.9498L99.0322 43.185L98.7579 51.9624L103.107 52.8245C103.107 52.9551 103.081 53.1902 103.029 53.5298C102.977 53.8433 102.807 54 102.52 54C102.52 54 102.089 54 101.227 54C100.364 53.9739 99.0191 53.9216 97.1905 53.8433C95.9627 53.8955 95.0614 53.9347 94.4867 53.9608C93.912 53.9869 93.5463 54 93.3896 54C93.2328 54 93.1544 54 93.1544 54C92.8671 54 92.6973 53.8433 92.645 53.5298C92.5928 53.1902 92.5667 52.9551 92.5667 52.8245L95.8582 51.9624V28.6082ZM102.676 28.2163L98.7579 28.6082L99.1497 41.0298L101.971 41.1865C103.565 41.1865 104.845 40.86 105.811 40.2069C106.804 39.5277 107.522 38.6787 107.966 37.6599C108.437 36.6149 108.672 35.557 108.672 34.4859C108.672 33.441 108.463 32.4483 108.045 31.5078C107.627 30.5413 106.974 29.7576 106.085 29.1567C105.197 28.5298 104.061 28.2163 102.676 28.2163ZM116.762 52.2367L119.388 52.7853C119.388 52.9681 119.362 53.2163 119.309 53.5298C119.257 53.8433 119.048 54 118.683 54C118.683 54 118.604 54 118.447 54C118.317 54 118.016 53.9869 117.546 53.9608C117.076 53.9347 116.318 53.9086 115.273 53.8824L112.57 54C112.126 54 111.904 53.6082 111.904 52.8245L114.176 52.2367L120.799 34.8386H123.346L130.046 52.1975L132.319 52.8245C132.319 52.9551 132.293 53.1902 132.241 53.5298C132.188 53.8433 131.992 54 131.653 54C131.653 54 131.431 54 130.987 54C130.542 53.9739 129.707 53.9347 128.479 53.8824C127.094 53.9347 126.18 53.9739 125.736 54C125.292 54 125.07 54 125.07 54C124.73 54 124.521 53.8433 124.443 53.5298C124.39 53.2163 124.364 52.9681 124.364 52.7853L127.029 52.2367L125.462 47.8871L118.173 48.279L116.762 52.2367ZM121.817 37.8558L118.839 46.2414H124.835L121.817 37.8558ZM134.415 54C134.075 54 133.866 53.8433 133.788 53.5298C133.735 53.1902 133.709 52.942 133.709 52.7853L136.217 52.2367V36.6019L133.709 36.0533C133.709 35.8966 133.735 35.6614 133.788 35.348C133.866 35.0084 134.075 34.8386 134.415 34.8386C134.415 34.8386 134.624 34.8516 135.042 34.8777C135.46 34.8777 136.335 34.9039 137.667 34.9561L141.977 34.8386C143.257 34.8386 144.355 35.0998 145.269 35.6223C146.209 36.1447 146.928 36.8631 147.424 37.7774C147.92 38.6656 148.169 39.6583 148.169 40.7555C148.169 41.7482 147.894 42.7147 147.346 43.6552C146.797 44.5695 145.974 45.3401 144.877 45.9671C143.78 46.5679 142.395 46.9075 140.723 46.9859L139.156 47.0643L138.882 52.2367L142.212 52.7853C142.212 52.942 142.186 53.1902 142.134 53.5298C142.082 53.8433 141.886 54 141.546 54L137.667 53.7649L134.415 54ZM140.919 45.3793C141.964 45.3271 142.826 45.0789 143.506 44.6348C144.185 44.1646 144.694 43.5768 145.034 42.8715C145.373 42.1661 145.543 41.4478 145.543 40.7163C145.543 39.6452 145.217 38.6656 144.564 37.7774C143.91 36.8892 142.879 36.4321 141.468 36.406L138.882 36.6803L139.234 45.3009L140.919 45.3793ZM164.356 54L154.677 53.7649L151.425 54C151.085 54 150.876 53.8433 150.798 53.5298C150.746 53.1902 150.72 52.942 150.72 52.7853L153.227 52.2367V36.6019L150.72 36.0533C150.72 35.8966 150.746 35.6614 150.798 35.348C150.876 35.0084 151.085 34.8386 151.425 34.8386C151.425 34.8386 151.634 34.8516 152.052 34.8777C152.47 34.8777 153.345 34.9039 154.677 34.9561L164.16 34.8386C164.526 34.8386 164.813 34.8647 165.022 34.9169C165.231 34.9431 165.336 35.0998 165.336 35.3872L164.63 39.5408C164.526 39.5408 164.343 39.5408 164.082 39.5408C163.82 39.5146 163.572 39.4624 163.337 39.384C163.128 39.2795 163.024 39.1358 163.024 38.953V36.6803L155.853 36.7586L156.205 43.2633H163.455V44.8699L156.166 45.3009L155.853 52.0799H163.376L164.042 49.8464C164.121 49.559 164.278 49.3762 164.513 49.2978C164.748 49.2194 165.14 49.1803 165.688 49.1803L165.453 53.5298C165.427 53.7388 165.322 53.8694 165.14 53.9216C164.983 53.9739 164.722 54 164.356 54ZM174.286 45.9279L174.012 52.2367L176.99 52.7853C176.99 52.942 176.964 53.1902 176.912 53.5298C176.859 53.8433 176.663 54 176.324 54L172.797 53.7649L169.545 54C169.205 54 168.996 53.8433 168.918 53.5298C168.866 53.1902 168.84 52.942 168.84 52.7853L171.347 52.2367V36.6019L168.84 36.0533C168.84 35.8966 168.866 35.6614 168.918 35.348C168.996 35.0084 169.205 34.8386 169.545 34.8386C169.545 34.8386 169.754 34.8516 170.172 34.8777C170.59 34.8777 171.465 34.9039 172.797 34.9561L176.794 34.8386C178.753 34.8386 180.282 35.361 181.379 36.406C182.476 37.4509 183.025 38.7048 183.025 40.1677C183.025 41.0559 182.724 41.9572 182.123 42.8715C181.522 43.7597 180.595 44.4519 179.341 44.9483L185.101 54.2351L183.103 54.8229L176.598 45.5752L174.286 45.9279ZM174.365 44.047L175.775 44.0862C177.317 44.034 178.479 43.6029 179.263 42.7931C180.046 41.9572 180.438 41.069 180.438 40.1285C180.438 39.2142 180.099 38.3783 179.419 37.6207C178.766 36.837 177.735 36.4321 176.324 36.406L174.012 36.6019L174.365 44.047ZM190.323 28.6082L187.031 27.7461C187.031 27.6155 187.058 27.3934 187.11 27.0799C187.162 26.7403 187.332 26.5705 187.619 26.5705C187.619 26.5705 187.698 26.5705 187.854 26.5705C188.011 26.5705 188.377 26.5836 188.952 26.6097C189.526 26.6358 190.427 26.675 191.655 26.7273L197.847 26.5705C199.545 26.5705 200.994 26.9232 202.196 27.6285C203.424 28.3339 204.351 29.2874 204.978 30.489C205.631 31.6907 205.958 33.0361 205.958 34.5251C205.958 35.8574 205.592 37.1374 204.861 38.3652C204.155 39.5669 203.071 40.5857 201.608 41.4216C200.171 42.2315 198.343 42.7409 196.122 42.9498L193.497 43.185L193.223 51.9624L197.572 52.8245C197.572 52.9551 197.546 53.1902 197.494 53.5298C197.442 53.8433 197.272 54 196.984 54C196.984 54 196.553 54 195.691 54C194.829 53.9739 193.484 53.9216 191.655 53.8433C190.427 53.8955 189.526 53.9347 188.952 53.9608C188.377 53.9869 188.011 54 187.854 54C187.698 54 187.619 54 187.619 54C187.332 54 187.162 53.8433 187.11 53.5298C187.058 53.1902 187.031 52.9551 187.031 52.8245L190.323 51.9624V28.6082ZM197.141 28.2163L193.223 28.6082L193.615 41.0298L196.436 41.1865C198.029 41.1865 199.309 40.86 200.276 40.2069C201.269 39.5277 201.987 38.6787 202.431 37.6599C202.901 36.6149 203.136 35.557 203.136 34.4859C203.136 33.441 202.927 32.4483 202.51 31.5078C202.092 30.5413 201.438 29.7576 200.55 29.1567C199.662 28.5298 198.526 28.2163 197.141 28.2163ZM213.97 45.9279L213.696 52.2367L216.674 52.7853C216.674 52.942 216.648 53.1902 216.596 53.5298C216.543 53.8433 216.347 54 216.008 54L212.481 53.7649L209.229 54C208.889 54 208.68 53.8433 208.602 53.5298C208.55 53.1902 208.523 52.942 208.523 52.7853L211.031 52.2367V36.6019L208.523 36.0533C208.523 35.8966 208.55 35.6614 208.602 35.348C208.68 35.0084 208.889 34.8386 209.229 34.8386C209.229 34.8386 209.438 34.8516 209.856 34.8777C210.274 34.8777 211.149 34.9039 212.481 34.9561L216.478 34.8386C218.437 34.8386 219.965 35.361 221.063 36.406C222.16 37.4509 222.708 38.7048 222.708 40.1677C222.708 41.0559 222.408 41.9572 221.807 42.8715C221.206 43.7597 220.279 44.4519 219.025 44.9483L224.785 54.2351L222.787 54.8229L216.282 45.5752L213.97 45.9279ZM214.049 44.047L215.459 44.0862C217 44.034 218.163 43.6029 218.947 42.7931C219.73 41.9572 220.122 41.069 220.122 40.1285C220.122 39.2142 219.783 38.3783 219.103 37.6207C218.45 36.837 217.418 36.4321 216.008 36.406L213.696 36.6019L214.049 44.047ZM245.798 44.0862C245.798 46.3851 245.367 48.2921 244.505 49.8072C243.643 51.3224 242.442 52.4587 240.9 53.2163C239.385 53.9478 237.648 54.3135 235.689 54.3135C233.86 54.3135 232.227 53.9478 230.791 53.2163C229.354 52.4848 228.218 51.3746 227.382 49.8856C226.546 48.3966 226.128 46.5418 226.128 44.3213C226.128 42.1792 226.572 40.3898 227.46 38.953C228.374 37.4901 229.589 36.3929 231.104 35.6614C232.619 34.9039 234.291 34.5251 236.12 34.5251C237.896 34.5251 239.516 34.8777 240.979 35.5831C242.442 36.2884 243.604 37.3464 244.466 38.7571C245.354 40.1677 245.798 41.9441 245.798 44.0862ZM229.184 44.3605C229.184 47.1296 229.837 49.1933 231.143 50.5517C232.449 51.9101 234.056 52.5893 235.963 52.5893C237.896 52.5893 239.503 51.9101 240.783 50.5517C242.089 49.1933 242.742 47.1296 242.742 44.3605C242.742 41.6959 242.089 39.7106 240.783 38.4044C239.503 37.0721 237.896 36.406 235.963 36.406C235.258 36.406 234.552 36.4713 233.847 36.6019C233.142 36.7064 232.515 36.837 231.966 36.9937C231.156 37.6207 230.49 38.5873 229.968 39.8934C229.445 41.1996 229.184 42.6886 229.184 44.3605ZM253.959 36.7194L249.531 36.6411L249.14 39.384C249.14 39.5669 249.022 39.7106 248.787 39.815C248.578 39.8934 248.343 39.9457 248.082 39.9718C247.846 39.9718 247.677 39.9718 247.572 39.9718L247.18 35.348C247.233 35.0867 247.363 34.9431 247.572 34.9169C247.781 34.8647 248.042 34.8386 248.356 34.8386L255.409 34.9953L262.345 34.8386C262.685 34.8386 262.959 34.8647 263.168 34.9169C263.377 34.9431 263.494 35.0867 263.52 35.348L263.129 39.9718C263.05 39.9718 262.88 39.9718 262.619 39.9718C262.358 39.9457 262.11 39.8934 261.875 39.815C261.666 39.7106 261.561 39.5669 261.561 39.384L261.169 36.6411C260.438 36.6411 259.693 36.6541 258.936 36.6803C258.204 36.7064 257.46 36.7194 256.702 36.7194V52.1191L259.876 52.7853C259.876 52.942 259.85 53.1902 259.798 53.5298C259.746 53.8433 259.55 54 259.21 54L255.409 53.7649L251.53 54C251.164 54 250.942 53.8433 250.864 53.5298C250.811 53.1902 250.785 52.942 250.785 52.7853L253.959 52.1191V36.7194ZM284.564 44.0862C284.564 46.3851 284.133 48.2921 283.271 49.8072C282.409 51.3224 281.207 52.4587 279.666 53.2163C278.151 53.9478 276.414 54.3135 274.454 54.3135C272.626 54.3135 270.993 53.9478 269.556 53.2163C268.119 52.4848 266.983 51.3746 266.147 49.8856C265.311 48.3966 264.893 46.5418 264.893 44.3213C264.893 42.1792 265.337 40.3898 266.225 38.953C267.14 37.4901 268.355 36.3929 269.87 35.6614C271.385 34.9039 273.057 34.5251 274.885 34.5251C276.662 34.5251 278.281 34.8777 279.744 35.5831C281.207 36.2884 282.37 37.3464 283.232 38.7571C284.12 40.1677 284.564 41.9441 284.564 44.0862ZM267.95 44.3605C267.95 47.1296 268.603 49.1933 269.909 50.5517C271.215 51.9101 272.822 52.5893 274.729 52.5893C276.662 52.5893 278.268 51.9101 279.548 50.5517C280.855 49.1933 281.508 47.1296 281.508 44.3605C281.508 41.6959 280.855 39.7106 279.548 38.4044C278.268 37.0721 276.662 36.406 274.729 36.406C274.023 36.406 273.318 36.4713 272.613 36.6019C271.907 36.7064 271.28 36.837 270.732 36.9937C269.922 37.6207 269.256 38.5873 268.733 39.8934C268.211 41.1996 267.95 42.6886 267.95 44.3605ZM302.874 48.3574L302.639 52.511C301.777 53.1118 300.784 53.569 299.661 53.8824C298.537 54.1698 297.336 54.3135 296.056 54.3135C294.253 54.3135 292.633 53.9478 291.197 53.2163C289.76 52.4848 288.624 51.3746 287.788 49.8856C286.952 48.3966 286.534 46.5418 286.534 44.3213C286.534 42.1792 286.978 40.3898 287.866 38.953C288.78 37.4901 289.995 36.3929 291.51 35.6614C293.025 34.9039 294.697 34.5251 296.526 34.5251C298.877 34.5251 300.941 35.0998 302.717 36.2492L301.894 40.5596C301.79 40.5596 301.594 40.5596 301.306 40.5596C301.045 40.5334 300.797 40.4812 300.562 40.4028C300.327 40.2983 300.209 40.1416 300.209 39.9326V37.1113C299.739 36.9545 299.125 36.8239 298.368 36.7194C297.636 36.6149 296.957 36.5627 296.33 36.5627C295.651 36.5627 294.958 36.628 294.253 36.7586C293.548 36.8631 292.921 36.9937 292.372 37.1505C291.562 37.7513 290.883 38.7048 290.335 40.011C289.812 41.291 289.551 42.7409 289.551 44.3605C289.551 46.163 289.851 47.6651 290.452 48.8668C291.053 50.0684 291.863 50.9697 292.882 51.5705C293.927 52.1452 295.076 52.4326 296.33 52.4326C297.166 52.4326 297.923 52.3673 298.603 52.2367C299.308 52.1061 299.948 51.871 300.523 51.5313L301.189 48.8668C301.293 48.6317 301.568 48.488 302.012 48.4357C302.456 48.3835 302.743 48.3574 302.874 48.3574ZM324.898 44.0862C324.898 46.3851 324.467 48.2921 323.605 49.8072C322.743 51.3224 321.542 52.4587 320 53.2163C318.485 53.9478 316.748 54.3135 314.789 54.3135C312.96 54.3135 311.327 53.9478 309.891 53.2163C308.454 52.4848 307.318 51.3746 306.482 49.8856C305.646 48.3966 305.228 46.5418 305.228 44.3213C305.228 42.1792 305.672 40.3898 306.56 38.953C307.474 37.4901 308.689 36.3929 310.204 35.6614C311.719 34.9039 313.391 34.5251 315.22 34.5251C316.996 34.5251 318.616 34.8777 320.079 35.5831C321.542 36.2884 322.704 37.3464 323.566 38.7571C324.454 40.1677 324.898 41.9441 324.898 44.0862ZM308.284 44.3605C308.284 47.1296 308.937 49.1933 310.243 50.5517C311.549 51.9101 313.156 52.5893 315.063 52.5893C316.996 52.5893 318.603 51.9101 319.883 50.5517C321.189 49.1933 321.842 47.1296 321.842 44.3605C321.842 41.6959 321.189 39.7106 319.883 38.4044C318.603 37.0721 316.996 36.406 315.063 36.406C314.358 36.406 313.652 36.4713 312.947 36.6019C312.242 36.7064 311.615 36.837 311.066 36.9937C310.256 37.6207 309.59 38.5873 309.068 39.8934C308.545 41.1996 308.284 42.6886 308.284 44.3605ZM340.23 54L331.61 53.7649L328.357 54C328.018 54 327.809 53.8433 327.73 53.5298C327.678 53.1902 327.652 52.942 327.652 52.7853L330.16 52.2367V36.6019L327.652 36.0533C327.652 35.8966 327.691 35.6614 327.769 35.348C327.874 35.0084 328.07 34.8386 328.357 34.8386L331.61 34.9561L334.784 34.8386C335.071 34.8386 335.254 34.9692 335.332 35.2304C335.41 35.4916 335.45 35.7529 335.45 36.0141L332.942 36.6019V52.0799H339.251L339.917 49.8464C339.995 49.559 340.152 49.3762 340.387 49.2978C340.622 49.2194 341.014 49.1803 341.563 49.1803L341.327 53.5298C341.301 53.7388 341.197 53.8824 341.014 53.9608C340.857 54.0131 340.596 54.0261 340.23 54Z" fill="#302207"/>
</svg>
