<svg width="304" height="379" viewBox="0 0 304 379" fill="none" xmlns="http://www.w3.org/2000/svg">
<rect width="304" height="379" fill="white"/>
<rect x="7.67033" y="7.67033" width="288.659" height="363.659" fill="white" stroke="#D5CAB4" stroke-width="3.34066"/>
<rect width="286" height="40" transform="translate(9 330)" fill="#D5CAB4" fill-opacity="0.2"/>
<rect width="215" height="215" transform="translate(44 16)" fill="white"/>
<path d="M177.976 68.5666C185.647 67.0563 193.048 60.2611 186 51.9999C178.951 43.7386 210.5 59.5003 208.065 67.9046C205.631 76.3089 193.757 68.4286 198.414 71.6361C203.07 74.8436 170.305 70.0768 177.976 68.5666Z" fill="#D9D9D9" stroke="#302207" stroke-width="3" stroke-linecap="round"/>
<path d="M190 67C190 73.9036 164.957 72.5 152 76C136.957 80.0635 102.5 97.9038 102.5 91.0003C102.5 84.0967 141.96 60.2464 156.043 60.2464C170.126 60.2464 190 60.0964 190 67Z" fill="#302207" stroke="#302207" stroke-width="3" stroke-linecap="round"/>
<path d="M124.5 129.5C117.5 132.853 106 118.372 106 111.18C108.184 104.787 111.148 104.238 116 108.5L116.043 108.538C120.048 112.055 134.472 124.724 124.5 129.5Z" fill="#D9D9D9" stroke="#302207" stroke-width="3" stroke-linecap="round"/>
<path d="M109 123.49C103.208 126.649 98 117.49 98 112.99C99.2 108.99 103.333 111.823 106 114.49C108.167 116.657 114.5 120.491 109 123.49Z" fill="#8991B1" stroke="#302207" stroke-width="3" stroke-linecap="round"/>
<path d="M86.1979 51.7769C92.6973 52.3066 102.502 59.1187 109 56.9995C102 81.2221 92.2683 97.0413 92.6206 98.3987L80.1985 96.2795C71.3993 77.2069 80.5318 58.6642 86.1979 51.7769Z" fill="#302207" stroke="#302207" stroke-width="3" stroke-linecap="round"/>
<circle cx="103.5" cy="85.5" r="14.5" fill="#8991B1" stroke="#302207" stroke-width="3" stroke-linecap="round"/>
<circle cx="103.5" cy="85.5" r="7.5" fill="#8991B1" stroke="#302207" stroke-width="3" stroke-linecap="round"/>
<path d="M102 115.331C94 113.731 91 102.498 89 96.3308C89 85.5308 103.333 87.4975 110.5 89.8308C110.5 89.8308 113.5 96.8308 114.5 101.331C115.5 105.831 110 116.931 102 115.331Z" fill="#D9D9D9" stroke="#302207" stroke-width="3" stroke-linecap="round"/>
<path d="M208.697 139.5C208.697 160.763 201.534 178 192.697 178C183.861 178 176.697 160.763 176.697 139.5C176.697 118.237 183.861 101 192.697 101C201.534 101 208.697 118.237 208.697 139.5Z" fill="#E7DFD1"/>
<path d="M198.197 139.5C198.197 147.508 195.735 154 192.697 154C189.66 154 187.197 147.508 187.197 139.5C187.197 131.492 189.66 125 192.697 125C195.735 125 198.197 131.492 198.197 139.5Z" fill="#BFAC89"/>
<path d="M176.697 139.5C176.697 118.237 183.861 101 192.697 101H135.697C123.547 101 113.697 118.237 113.697 139.5V209C114.864 208 117.897 206 120.697 206C124.197 206 124.697 209 127.697 209C130.697 209 131.697 206 135.197 206C138.697 206 139.697 209 142.697 209C145.697 209 147.697 206 150.197 206C152.697 206 155.197 209 158.197 209C161.197 209 162.697 206 165.697 206C170.197 206 170.197 209.268 176.697 209.268V178V139.5Z" fill="white"/>
<path d="M192.697 178C183.861 178 176.697 160.763 176.697 139.5V178H192.697Z" fill="#BFAC89"/>
<path d="M192.697 178C201.534 178 208.697 160.763 208.697 139.5C208.697 118.237 201.534 101 192.697 101M192.697 178C183.861 178 176.697 160.763 176.697 139.5M192.697 178H176.697M176.697 139.5C176.697 118.237 183.861 101 192.697 101M176.697 139.5V178M192.697 101H135.697C123.547 101 113.697 118.237 113.697 139.5V209C114.864 208 117.897 206 120.697 206C124.197 206 124.697 209 127.697 209C130.697 209 131.697 206 135.197 206C138.697 206 139.697 209 142.697 209C145.697 209 147.697 206 150.197 206C152.697 206 155.197 209 158.197 209C161.197 209 162.697 206 165.697 206C170.197 206 170.197 209.268 176.697 209.268V178M198.197 139.5C198.197 147.508 195.735 154 192.697 154C189.66 154 187.197 147.508 187.197 139.5C187.197 131.492 189.66 125 192.697 125C195.735 125 198.197 131.492 198.197 139.5Z" stroke="#302207" stroke-width="3"/>
<path d="M160.697 138C160.697 138 164.697 138.5 168.697 138" stroke="#302207" stroke-width="3" stroke-linecap="round"/>
<path d="M113.697 138C113.697 138 117.697 138.5 121.697 138" stroke="#302207" stroke-width="3" stroke-linecap="round"/>
<path d="M128.697 138C128.697 138 132.697 138.5 136.697 138" stroke="#302207" stroke-width="3" stroke-linecap="round"/>
<path d="M144.697 137.223C144.697 137.223 148.697 136.723 152.697 137.223" stroke="#302207" stroke-width="3" stroke-linecap="round"/>
<path d="M195.5 104.001C191.499 104.501 190.866 102.654 189.501 100.5C178.999 106 184.993 114.821 187.327 113.923C189.66 113.025 199.5 103.5 195.5 104.001Z" fill="#D9D9D9" stroke="#302207" stroke-width="3" stroke-linecap="round"/>
<path d="M198.692 74.9364C202.501 74.4993 208.999 74.4994 208.999 68.9997C209 63.5 222.999 84.4995 219 81.9997C215.001 79.5 211.355 82.5517 213.001 86C214.647 89.4482 194.884 75.3734 198.692 74.9364Z" fill="#D9D9D9" stroke="#302207" stroke-width="3" stroke-linecap="round"/>
<circle cx="205" cy="69" r="5" fill="#8991B1" stroke="#302207" stroke-width="3" stroke-linecap="round"/>
<path d="M175.501 71.0004C183.082 69.5924 187.2 62.3019 180.011 53.4682C172.822 44.6346 208 67.6644 205.5 73.6643C203 79.6643 191.306 73.884 196.004 77.358C200.701 80.8321 167.92 72.4085 175.501 71.0004Z" fill="#D9D9D9" stroke="#302207" stroke-width="3" stroke-linecap="round"/>
<path d="M191.001 80.4996C193.001 90.5002 199.556 78.9123 205 74.0002C210.445 69.0881 200.895 107.149 196.501 103C192.107 98.8518 191.707 95.7666 189.501 99.0003C187.295 102.234 189 70.499 191.001 80.4996Z" fill="#D9D9D9" stroke="#302207" stroke-width="3" stroke-linecap="round"/>
<circle cx="202" cy="76" r="5" fill="#8991B1" stroke="#302207" stroke-width="3" stroke-linecap="round"/>
<path d="M197.501 88.5C201.001 87.5636 202.513 86.9996 204.5 84.0001C206.487 81.0006 213.001 98.4996 213.001 98.4996C208.114 92.6068 205.25 96.9184 206 100.5C206.75 104.083 194 89.4365 197.501 88.5Z" fill="#D9D9D9" stroke="#302207" stroke-width="3" stroke-linecap="round"/>
<path d="M176.499 71.4996C180.999 70.2545 182.499 69.5003 180.999 63.4997C178.999 52.0003 203.741 77.1249 201.499 79.5C199.257 81.875 194.174 80.1956 194 84.9998C193.826 89.804 168.293 72.8423 176.499 71.4996Z" fill="#D9D9D9" stroke="#302207" stroke-width="3" stroke-linecap="round"/>
<path d="M219.5 82.4998C220.558 86.3899 217.123 86.0874 215.001 87.5001C219.501 97.0001 228.99 91.9009 228.04 89.5885C227.09 87.2762 218.442 78.6097 219.5 82.4998Z" fill="#D9D9D9" stroke="#302207" stroke-width="3" stroke-linecap="round"/>
<circle cx="199" cy="83" r="5" fill="#8991B1" stroke="#302207" stroke-width="3" stroke-linecap="round"/>
<circle cx="209" cy="99" r="4" fill="#8991B1" stroke="#302207" stroke-width="3" stroke-linecap="round"/>
<circle cx="216" cy="84" r="4" fill="#8991B1" stroke="#302207" stroke-width="3" stroke-linecap="round"/>
<circle cx="193" cy="101" r="4" fill="#8991B1" stroke="#302207" stroke-width="3" stroke-linecap="round"/>
<circle cx="183.5" cy="52.5" r="5.5" fill="#8991B1" stroke="#302207" stroke-width="3" stroke-linecap="round"/>
<circle cx="184" cy="59" r="6" fill="#8991B1" stroke="#302207" stroke-width="3" stroke-linecap="round"/>
<circle cx="178" cy="67" r="6" fill="#8991B1" stroke="#302207" stroke-width="3" stroke-linecap="round"/>
<path d="M213 100.5C212.5 104.5 210 102.5 207.5 103C207.5 113.5 218 112.499 218 110C218 107.5 213.5 96.4994 213 100.5Z" fill="#D9D9D9" stroke="#302207" stroke-width="3" stroke-linecap="round"/>
<path d="M106.001 52.5C107.001 51 139.5 46 139.5 46L144 62.5C144 62.5 120.5 82.5 118.5 83C116.5 83.5 102.5 83 101.5 82C100.5 81 105.001 54 106.001 52.5Z" fill="#D9D9D9" stroke="#302207" stroke-width="3" stroke-linecap="round"/>
<path d="M170.772 67.4915C167.473 70.3008 138.505 74.2859 138.467 69.5452C138.428 64.8045 131.626 43.821 133.841 43.0817C136.056 42.3424 183.132 33.5193 184.73 40.659C187.364 52.4334 174.895 63.9799 170.772 67.4915Z" fill="#D9D9D9" stroke="#302207" stroke-width="3" stroke-linecap="round"/>
<path d="M169 53.5L179.5 57" stroke="#302207" stroke-width="3" stroke-linecap="round"/>
<path d="M175 45.5L184 47.5" stroke="#302207" stroke-width="3" stroke-linecap="round"/>
<path d="M101 80L136 59" stroke="#302207" stroke-width="3" stroke-linecap="round"/>
<g transform="translate(24,248)">
<text font-family="Courier New, monospace" font-size="14" font-weight="700">
  <tspan fill="#A7A7A7">lock price: </tspan>
  <tspan fill="#302207">$2325.65</tspan>
</text>
</g>
<g transform="translate(24,272)">
<text font-family="Courier New, monospace" font-size="14" font-weight="700">
  <tspan fill="#A7A7A7">target price: </tspan>
  <tspan fill="#302207">$2444</tspan>
  <tspan fill="#24C35C">(80,79%)</tspan>
</text>
</g>
  <g transform="translate(24,296)">
<text font-family="Courier New, monospace" font-size="14" font-weight="700">
  <tspan fill="#A7A7A7">amount: </tspan>
  <tspan fill="#302207">0.5 ETH</tspan>
</text>
</g>
<text x="21" y="358" font-family="Courier New, monospace" font-weight="700" font-size="16.7" fill="#302207">🧻 Paper Hands Tier</text>
</svg>
