<svg width="381" height="380" viewBox="0 0 381 380" fill="none" xmlns="http://www.w3.org/2000/svg">
<rect width="380" height="380" transform="translate(0.535156)" fill="white"/>
<path d="M74.7673 63.6276L62.3952 83.9532L80.9533 96.3253L85.3719 79.5346L74.7673 63.6276Z" fill="#ADC4FF"/>
<path d="M106.581 63.6276H74.7673L85.3719 79.5346L106.581 78.6509V63.6276Z" fill="white"/>
<path d="M85.3719 79.5346L80.9533 96.3253L100.395 105.162L110.116 93.6741L106.581 78.6509L85.3719 79.5346Z" fill="white"/>
<path d="M78.3021 121.953L95.9766 126.372L100.395 105.162L80.9533 96.3253L78.3021 121.953Z" fill="white"/>
<path d="M62.3952 83.9532L57.9766 113.116L78.3021 121.953L80.9533 96.3253L62.3952 83.9532Z" fill="#ADC4FF"/>
<path d="M57.9766 113.116L65.0463 142.279L78.3021 121.953L57.9766 113.116Z" fill="#ADC4FF"/>
<path d="M65.0463 142.279L85.3719 144.93L95.9766 126.372L78.3021 121.953L65.0463 142.279Z" fill="#ADC4FF"/>
<path d="M85.3719 144.93L106.581 149.349L95.9766 126.372L85.3719 144.93Z" fill="#ADC4FF"/>
<path d="M85.3719 144.93L98.6277 167.907L112.767 165.256L106.581 149.349L85.3719 144.93Z" fill="white"/>
<path d="M114.535 147.581L120.721 126.372H95.9766L106.581 149.349L114.535 147.581Z" fill="white"/>
<path d="M126.907 147.581L135.683 126.372H120.721L114.535 147.581H126.907Z" fill="#799DF7"/>
<path d="M112.767 165.256L124.256 159.069L114.535 147.581L106.581 149.349L112.767 165.256Z" fill="#ADC4FF"/>
<path d="M124.256 159.069L126.907 147.581H114.535L124.256 159.069Z" fill="#ADC4FF"/>
<path d="M139.279 162.604L126.907 147.581L124.256 159.069L139.279 162.604Z" fill="#799DF7"/>
<path d="M133.977 181.162L139.279 162.604L124.256 159.069L133.977 181.162Z" fill="#799DF7"/>
<path d="M112.767 165.256L133.977 181.162L124.256 159.069L112.767 165.256Z" fill="white"/>
<path d="M98.6277 167.907L118.07 181.162H133.977L112.767 165.256L98.6277 167.907Z" fill="#799DF7"/>
<path d="M118.07 181.162L133.977 198.837V181.162H118.07Z" fill="#799DF7"/>
<path d="M133.977 198.837L147.232 184.697L133.977 181.162V198.837Z" fill="#ADC4FF"/>
<path d="M147.232 184.697L139.279 162.604L133.977 181.162L147.232 184.697Z" fill="#799DF7"/>
<path d="M95.9766 126.372H120.721L100.395 105.162L95.9766 126.372Z" fill="#ADC4FF"/>
<path d="M120.721 126.372L128.674 113.116L110.116 93.6741L100.395 105.162L120.721 126.372Z" fill="white"/>
<path d="M135.683 126.372L137.511 121.953L128.674 113.116L120.721 126.372H135.683Z" fill="#799DF7"/>
<path d="M128.674 113.116L147.232 96.3253L132.209 85.7206L110.116 93.6741L128.674 113.116Z" fill="#ADC4FF"/>
<path d="M137.511 121.953L162.256 103.395L147.232 96.3253L128.674 113.116L137.511 121.953Z" fill="#799DF7"/>
<path d="M162.256 103.395L176.395 90.1392L174.628 75.9997L147.232 96.3253L162.256 103.395Z" fill="white"/>
<path d="M147.232 96.3253L174.628 75.9997L157.837 72.4648L132.209 85.7206L147.232 96.3253Z" fill="#ADC4FF"/>
<path d="M126.907 68.9604L132.209 85.7206L157.837 72.4648L156.953 60.0927L126.907 68.9604Z" fill="white"/>
<path d="M126.907 68.9604L106.581 78.6509L110.116 93.6741L132.209 85.7206L126.907 68.9604Z" fill="white"/>
<path d="M126.907 56.5578L106.581 63.6276V78.6509L126.907 68.9604V56.5578Z" fill="white"/>
<path d="M166.674 46.8369L126.907 56.5578V68.9604L156.953 60.0927L166.674 46.8369Z" fill="white"/>
<path d="M166.674 46.8369L156.953 60.0927L178.163 63.6276L179.93 48.1926L166.674 46.8369Z" fill="white"/>
<path d="M157.837 72.4648L174.628 75.9997L178.163 63.6276L156.953 60.0927L157.837 72.4648Z" fill="#ADC4FF"/>
<path d="M179.93 48.1926L178.163 63.6276H202.023L207.325 50.9944L179.93 48.1926Z" fill="white"/>
<path d="M174.628 75.9997L199.372 78.6509L202.023 63.6276H178.163L174.628 75.9997Z" fill="#ADC4FF"/>
<path d="M207.325 50.9944L202.023 63.6276L229.418 72.4648L234.721 60.9764L207.325 50.9944Z" fill="#ADC4FF"/>
<path d="M199.372 78.6509L219.697 91.9067L225 81.302L202.023 63.6276L199.372 78.6509Z" fill="#ADC4FF"/>
<path d="M202.023 63.6276L225 81.302L229.418 72.4648L202.023 63.6276Z" fill="white"/>
<path d="M174.628 75.9997L176.395 90.1392L199.372 78.6509L174.628 75.9997Z" fill="#799DF7"/>
<path d="M176.395 90.1392L219.697 91.9067L199.372 78.6509L176.395 90.1392Z" fill="#799DF7"/>
<path d="M219.697 91.9067L176.395 90.1392L199.372 103.395L219.697 91.9067Z" fill="#3D64C7"/>
<path d="M167.558 113.116L199.372 103.395L176.395 90.1392L167.558 113.116Z" fill="#3D64C7"/>
<path d="M176.395 90.1392L162.256 103.395L167.558 113.116L176.395 90.1392Z" fill="#4474EF"/>
<path d="M162.256 103.395L137.511 121.953L135.683 126.372L167.558 113.116L162.256 103.395Z" fill="#3D64C7"/>
<path d="M232.07 99.9754L219.697 91.9067L199.372 103.395L232.07 99.9754Z" fill="#3D64C7"/>
<path d="M219.697 91.9067L232.07 99.9754L236.488 93.6741L225 81.302L219.697 91.9067Z" fill="#799DF7"/>
<path d="M225 81.302L236.488 93.6741L245.325 81.302H225Z" fill="white"/>
<path d="M225 81.302H245.325L246.651 74.6741L247.977 68.0462L229.418 72.4648L225 81.302Z" fill="white"/>
<path d="M234.721 60.9764L229.418 72.4648L247.977 68.0462L234.721 60.9764Z" fill="white"/>
<path d="M244.442 54.7904L207.325 50.9944L234.721 60.9764L244.442 54.7904Z" fill="white"/>
<path d="M266.535 66.2788L244.442 54.7904L234.721 60.9764L247.977 68.0462L260.723 74.6741L266.535 66.2788Z" fill="white"/>
<path d="M260.723 74.6741L270.07 79.5346L266.535 66.2788L260.723 74.6741Z" fill="white"/>
<path d="M270.07 79.5346L286.86 96.3253L285.977 104.279L289.07 94.9997L292.163 85.7206L270.07 68.9604L266.535 66.2788L270.07 79.5346Z" fill="#ADC4FF"/>
<path d="M270.07 68.9604L292.163 85.7206L302.767 102.385L307.186 91.023L292.163 78.6509L270.07 68.9604Z" fill="#799DF7"/>
<path d="M302.767 102.385L292.163 85.7206L289.07 94.9997L296.581 108.697L302.767 102.385Z" fill="#ADC4FF"/>
<path d="M285.977 104.279L285.705 113.116L296.581 108.697L289.07 94.9997L285.977 104.279Z" fill="white"/>
<path d="M285.705 113.116L301 129.023L310.721 121.069L296.581 108.697L285.705 113.116Z" fill="#799DF7"/>
<path d="M319.558 120.186L304.535 105.162L302.767 102.385L296.581 108.697L310.721 121.069L319.558 120.186Z" fill="white"/>
<path d="M315.139 136.093L323.977 134.325L319.558 120.186L310.721 121.069L315.139 136.093Z" fill="white"/>
<path d="M301 129.023L315.139 136.093L310.721 121.069L301 129.023Z" fill="#799DF7"/>
<path d="M302.767 102.385L322.209 96.3253L307.186 91.023L302.767 102.385Z" fill="#799DF7"/>
<path d="M322.209 96.3253L317.791 87.4881L307.186 91.023L322.209 96.3253Z" fill="white"/>
<path d="M317.791 87.4881L292.163 78.6509L307.186 91.023L317.791 87.4881Z" fill="white"/>
<path d="M236.488 93.6741L256.814 105.162L268.302 108.697L266.535 94.1562L245.325 81.302L236.488 93.6741Z" fill="#ADC4FF"/>
<path d="M268.302 108.697L274.488 98.9764L266.535 94.1562L268.302 108.697Z" fill="white"/>
<path d="M268.302 108.697L271.837 118.418L278.907 117.535L274.488 98.9764L268.302 108.697Z" fill="#ADC4FF"/>
<path d="M285.522 115.767L274.488 98.9764L278.907 117.535L291.279 138.744L290.881 123.922L285.522 115.767Z" fill="white"/>
<path d="M271.837 118.418L282.442 136.093L291.279 138.744L278.907 117.535L271.837 118.418Z" fill="#ADC4FF"/>
<path d="M268.302 108.697L260.349 118.418H271.837L268.302 108.697Z" fill="#799DF7"/>
<path d="M256.814 105.162L260.349 118.418L268.302 108.697L256.814 105.162Z" fill="#ADC4FF"/>
<path d="M232.07 99.9754L260.349 118.418L256.814 105.162L236.488 93.6741L232.07 99.9754Z" fill="#799DF7"/>
<path d="M260.349 118.418L278.642 142.279L282.442 136.093L271.837 118.418H260.349Z" fill="#799DF7"/>
<path d="M282.442 136.093L278.642 142.279L285.093 141.395L282.442 136.093Z" fill="white"/>
<path d="M282.442 136.093L285.093 141.395L299.232 157.302L303.209 155.535L291.279 138.744L282.442 136.093Z" fill="#ADC4FF"/>
<path d="M291.279 138.744L294.814 129.907L290.881 123.922L291.279 138.744Z" fill="white"/>
<path d="M307.186 153.767L294.814 129.907L291.279 138.744L303.209 155.535L307.186 153.767Z" fill="white"/>
<path d="M307.186 170.558V153.767L303.209 155.535L299.232 157.302L307.186 170.558Z" fill="white"/>
<path d="M294.814 167.907L307.186 170.558L299.232 157.302L294.814 167.907Z" fill="white"/>
<path d="M280.674 144.93L294.814 167.907L299.232 157.302L285.093 141.395L278.642 142.279L280.674 144.93Z" fill="#799DF7"/>
<path d="M262.116 170.558L274.488 155.535L265.651 148.465L260.349 159.069L262.116 170.558Z" fill="#799DF7"/>
<path d="M256.814 144.93L248.86 159.069H260.349L265.651 148.465L256.814 144.93Z" fill="#799DF7"/>
<path d="M248.86 159.069V167.907L260.349 159.069H248.86Z" fill="#799DF7"/>
<path d="M248.86 167.907L262.116 170.558L260.349 159.069L248.86 167.907Z" fill="#799DF7"/>
<path d="M245.325 81.302L266.535 94.1562V83.9532L246.651 74.6741L245.325 81.302Z" fill="#ADC4FF"/>
<path d="M247.977 68.0462L246.651 74.6741L266.535 83.9532L270.07 79.5346L260.723 74.6741L247.977 68.0462Z" fill="white"/>
<path d="M286.86 96.3253L270.07 79.5346L266.535 83.9532L280.674 97.209L286.86 96.3253Z" fill="white"/>
<path d="M266.535 94.1562L274.488 98.9764L280.674 97.209L266.535 83.9532V94.1562Z" fill="#ADC4FF"/>
<path d="M274.488 98.9764L285.522 115.767L285.705 113.116L285.977 104.279L286.86 96.3253L280.674 97.209L274.488 98.9764Z" fill="white"/>
<path d="M278.642 142.279L271.189 132.558L265.651 148.465L274.488 155.535L278.642 142.279Z" fill="#799DF7"/>
<path d="M260.349 118.418L256.814 144.93L265.651 148.465L271.189 132.558L260.349 118.418Z" fill="#799DF7"/>
<path d="M65.0463 142.279L85.3719 144.93M65.0463 142.279L57.9766 113.116M65.0463 142.279L78.3021 121.953M85.3719 144.93L98.6277 167.907M85.3719 144.93L106.581 149.349M85.3719 144.93L95.9766 126.372M98.6277 167.907L118.07 181.162M98.6277 167.907L112.767 165.256M118.07 181.162L133.977 198.837M118.07 181.162H133.977M133.977 198.837L147.232 184.697M133.977 198.837V181.162M147.232 184.697L139.279 162.604M147.232 184.697L133.977 181.162M139.279 162.604L126.907 147.581M139.279 162.604L133.977 181.162M139.279 162.604L124.256 159.069M126.907 147.581L135.683 126.372M126.907 147.581L124.256 159.069M126.907 147.581H114.535M137.511 121.953L162.256 103.395M137.511 121.953L135.683 126.372M137.511 121.953L128.674 113.116M162.256 103.395L176.395 90.1392M162.256 103.395L147.232 96.3253M162.256 103.395L167.558 113.116M176.395 90.1392L219.697 91.9067M176.395 90.1392L174.628 75.9997M176.395 90.1392L199.372 78.6509M176.395 90.1392L167.558 113.116M176.395 90.1392L199.372 103.395M219.697 91.9067L232.07 99.9754M219.697 91.9067L199.372 78.6509M219.697 91.9067L225 81.302M219.697 91.9067L199.372 103.395M260.349 118.418L256.814 144.93M260.349 118.418L278.642 142.279M260.349 118.418L232.07 99.9754M260.349 118.418L256.814 105.162M260.349 118.418L268.302 108.697M260.349 118.418H271.837M260.349 118.418L271.189 132.558M294.814 167.907L280.674 144.93L278.642 142.279M294.814 167.907L307.186 170.558M294.814 167.907L299.232 157.302M307.186 170.558V153.767M307.186 170.558L299.232 157.302M307.186 153.767L294.814 129.907M307.186 153.767L303.209 155.535M294.814 129.907L291.279 138.744M294.814 129.907L290.881 123.922M274.488 98.9764L285.522 115.767M274.488 98.9764L278.907 117.535M274.488 98.9764L268.302 108.697M274.488 98.9764L266.535 94.1562M274.488 98.9764L280.674 97.209M245.325 81.302L266.535 94.1562M245.325 81.302L236.488 93.6741M245.325 81.302H225M245.325 81.302L246.651 74.6741M256.814 144.93L248.86 159.069M256.814 144.93L265.651 148.465M248.86 159.069V167.907M248.86 159.069H260.349M248.86 167.907L262.116 170.558M248.86 167.907L260.349 159.069M262.116 170.558L274.488 155.535M262.116 170.558L260.349 159.069M274.488 155.535L278.642 142.279M274.488 155.535L265.651 148.465M278.642 142.279L282.442 136.093M278.642 142.279L285.093 141.395M278.642 142.279L271.189 132.558M285.522 115.767L285.705 113.116M285.522 115.767L290.881 123.922M286.86 96.3253L270.07 79.5346M286.86 96.3253L285.977 104.279M286.86 96.3253L280.674 97.209M270.07 79.5346L266.535 83.9532M270.07 79.5346L260.723 74.6741M270.07 79.5346L266.535 66.2788M247.977 68.0462L234.721 60.9764M247.977 68.0462L229.418 72.4648M247.977 68.0462L246.651 74.6741M247.977 68.0462L260.723 74.6741M285.705 113.116L301 129.023M285.705 113.116L285.977 104.279M285.705 113.116L296.581 108.697M301 129.023L315.139 136.093M301 129.023L310.721 121.069M315.139 136.093L323.977 134.325L319.558 120.186M315.139 136.093L310.721 121.069M319.558 120.186L304.535 105.162L302.767 102.385M319.558 120.186L310.721 121.069M292.163 85.7206L270.07 68.9604M292.163 85.7206L302.767 102.385M292.163 85.7206L282.442 91.023M292.163 85.7206L289.07 94.9997M266.535 66.2788L244.442 54.7904M266.535 66.2788L270.07 68.9604M266.535 66.2788L260.723 74.6741M244.442 54.7904L207.325 50.9944M244.442 54.7904L234.721 60.9764M166.674 46.8369L126.907 56.5578M166.674 46.8369L156.953 60.0927M166.674 46.8369L179.93 48.1926M126.907 56.5578L106.581 63.6276M126.907 56.5578V68.9604M106.581 63.6276H74.7673M106.581 63.6276V78.6509M74.7673 63.6276L62.3952 83.9532M74.7673 63.6276L85.3719 79.5346M62.3952 83.9532L57.9766 113.116M62.3952 83.9532L80.9533 96.3253M57.9766 113.116L78.3021 121.953M270.07 68.9604L292.163 78.6509M292.163 78.6509L317.791 87.4881M292.163 78.6509L307.186 91.023M317.791 87.4881L322.209 96.3253M317.791 87.4881L307.186 91.023M322.209 96.3253L302.767 102.385M322.209 96.3253L307.186 91.023M302.767 102.385L296.581 108.697M302.767 102.385L307.186 91.023M232.07 99.9754L199.372 103.395M232.07 99.9754L236.488 93.6741M199.372 103.395L167.558 113.116M167.558 113.116L135.683 126.372M135.683 126.372H120.721M133.977 181.162L112.767 165.256M133.977 181.162L124.256 159.069M112.767 165.256L124.256 159.069M112.767 165.256L106.581 149.349M124.256 159.069L114.535 147.581M106.581 149.349L114.535 147.581M106.581 149.349L95.9766 126.372M114.535 147.581L120.721 126.372M120.721 126.372L128.674 113.116M120.721 126.372H95.9766M120.721 126.372L100.395 105.162M128.674 113.116L147.232 96.3253M128.674 113.116L110.116 93.6741M147.232 96.3253L174.628 75.9997M147.232 96.3253L132.209 85.7206M174.628 75.9997L157.837 72.4648M174.628 75.9997L199.372 78.6509M174.628 75.9997L178.163 63.6276M95.9766 126.372L78.3021 121.953M95.9766 126.372L100.395 105.162M78.3021 121.953L80.9533 96.3253M80.9533 96.3253L85.3719 79.5346M80.9533 96.3253L100.395 105.162M85.3719 79.5346L106.581 78.6509M106.581 78.6509L126.907 68.9604M106.581 78.6509L110.116 93.6741M126.907 68.9604L132.209 85.7206M126.907 68.9604L156.953 60.0927M100.395 105.162L110.116 93.6741M110.116 93.6741L132.209 85.7206M132.209 85.7206L157.837 72.4648M157.837 72.4648L156.953 60.0927M156.953 60.0927L178.163 63.6276M199.372 78.6509L202.023 63.6276M178.163 63.6276L179.93 48.1926M178.163 63.6276H202.023M179.93 48.1926L207.325 50.9944M202.023 63.6276L207.325 50.9944M202.023 63.6276L225 81.302M202.023 63.6276L229.418 72.4648M207.325 50.9944L234.721 60.9764M225 81.302L236.488 93.6741M225 81.302L229.418 72.4648M236.488 93.6741L256.814 105.162M256.814 105.162L268.302 108.697M268.302 108.697L271.837 118.418M268.302 108.697L266.535 94.1562M271.837 118.418L282.442 136.093M271.837 118.418L278.907 117.535M282.442 136.093L285.093 141.395M282.442 136.093L291.279 138.744M285.093 141.395L299.232 157.302M299.232 157.302L303.209 155.535M303.209 155.535L291.279 138.744M291.279 138.744L290.881 123.922M291.279 138.744L278.907 117.535M266.535 94.1562V83.9532M229.418 72.4648L234.721 60.9764M246.651 74.6741L266.535 83.9532M266.535 83.9532L280.674 97.209M285.977 104.279L289.07 94.9997M289.07 94.9997L296.581 108.697M296.581 108.697L310.721 121.069M265.651 148.465L260.349 159.069M265.651 148.465L271.189 132.558" stroke="#003F76" stroke-width="1.76744" stroke-linecap="round"/>
<path d="M260.349 118.418L256.814 144.93L248.86 159.069V167.907L262.116 170.558L274.488 155.535L278.642 142.279M260.349 118.418L278.642 142.279M260.349 118.418L232.07 99.9754M245.325 81.302L274.488 98.9764L285.522 115.767M278.642 142.279L280.674 144.93L294.814 167.907L307.186 170.558V153.767L294.814 129.907L285.522 115.767M285.522 115.767L285.705 113.116M247.977 68.0462L270.07 79.5346L286.86 96.3253L285.705 113.116M285.705 113.116L301 129.023L315.139 136.093L323.977 134.325L319.558 120.186L304.535 105.162L302.767 102.385M270.07 68.9604L292.163 85.7206L302.767 102.385M270.07 68.9604L266.535 66.2788L244.442 54.7904L166.674 46.8369L126.907 56.5578L106.581 63.6276H74.7673L62.3952 83.9532L57.9766 113.116L65.0463 142.279L85.3719 144.93L98.6277 167.907L118.07 181.162L133.977 198.837L147.232 184.697L139.279 162.604L126.907 147.581L135.683 126.372M270.07 68.9604L292.163 78.6509L317.791 87.4881L322.209 96.3253L302.767 102.385M232.07 99.9754L219.697 91.9067L176.395 90.1392L162.256 103.395L137.511 121.953L135.683 126.372M232.07 99.9754L199.372 103.395L167.558 113.116L135.683 126.372" stroke="#003F76" stroke-width="5.30233" stroke-linecap="round"/>
<path d="M291.628 218.279C291.628 255.86 278.967 286.325 263.349 286.325C247.731 286.325 235.07 255.86 235.07 218.279C235.07 180.698 247.731 150.232 263.349 150.232C278.967 150.232 291.628 180.698 291.628 218.279Z" fill="#E7DFD1"/>
<path d="M273.07 218.279C273.07 232.433 268.717 243.907 263.349 243.907C257.98 243.907 253.628 232.433 253.628 218.279C253.628 204.125 257.98 192.651 263.349 192.651C268.717 192.651 273.07 204.125 273.07 218.279Z" fill="#BFAC89"/>
<path d="M235.07 218.279C235.07 180.698 247.731 150.232 263.349 150.232H162.604C141.13 150.232 123.721 180.698 123.721 218.279V341.116C125.783 339.349 131.144 335.814 136.093 335.814C142.279 335.814 143.163 341.116 148.465 341.116C153.767 341.116 155.535 335.814 161.721 335.814C167.907 335.814 169.674 341.116 174.977 341.116C180.279 341.116 183.814 335.814 188.232 335.814C192.651 335.814 197.07 341.116 202.372 341.116C207.674 341.116 210.325 335.814 215.628 335.814C223.581 335.814 223.581 341.59 235.07 341.59V286.325V218.279Z" fill="white"/>
<path d="M263.349 286.325C247.731 286.325 235.07 255.86 235.07 218.279V286.325H263.349Z" fill="#BFAC89"/>
<path d="M263.349 286.325C278.967 286.325 291.628 255.86 291.628 218.279C291.628 180.698 278.967 150.232 263.349 150.232M263.349 286.325C247.731 286.325 235.07 255.86 235.07 218.279M263.349 286.325H235.07M235.07 218.279C235.07 180.698 247.731 150.232 263.349 150.232M235.07 218.279V286.325M263.349 150.232H162.604C141.13 150.232 123.721 180.698 123.721 218.279V341.116C125.783 339.349 131.144 335.814 136.093 335.814C142.279 335.814 143.163 341.116 148.465 341.116C153.767 341.116 155.535 335.814 161.721 335.814C167.907 335.814 169.674 341.116 174.977 341.116C180.279 341.116 183.814 335.814 188.232 335.814C192.651 335.814 197.07 341.116 202.372 341.116C207.674 341.116 210.325 335.814 215.628 335.814C223.581 335.814 223.581 341.59 235.07 341.59V286.325M273.07 218.279C273.07 232.433 268.717 243.907 263.349 243.907C257.98 243.907 253.628 232.433 253.628 218.279C253.628 204.125 257.98 192.651 263.349 192.651C268.717 192.651 273.07 204.125 273.07 218.279Z" stroke="#302207" stroke-width="5.30233"/>
<path d="M206.79 215.628C206.79 215.628 213.86 216.512 220.93 215.628" stroke="#302207" stroke-width="5.30233" stroke-linecap="round"/>
<path d="M123.721 215.628C123.721 215.628 130.79 216.512 137.86 215.628" stroke="#302207" stroke-width="5.30233" stroke-linecap="round"/>
<path d="M150.232 215.628C150.232 215.628 157.302 216.512 164.372 215.628" stroke="#302207" stroke-width="5.30233" stroke-linecap="round"/>
<path d="M178.512 214.254C178.512 214.254 185.581 213.37 192.651 214.254" stroke="#302207" stroke-width="5.30233" stroke-linecap="round"/>
<path d="M219.697 91.9054L232.069 99.9742L236.488 93.6729L225 81.3008L219.697 91.9054Z" fill="#799DF7"/>
<path d="M225 81.3008L236.488 93.6729L245.325 81.3008H225Z" fill="white"/>
<path d="M225 81.3008H245.325L246.651 74.6729L247.976 68.045L229.418 72.4636L225 81.3008Z" fill="white"/>
<path d="M234.721 60.9752L229.418 72.4636L247.976 68.045L234.721 60.9752Z" fill="white"/>
<path d="M244.441 54.7891L207.325 50.9932L234.721 60.9752L244.441 54.7891Z" fill="white"/>
<path d="M266.534 66.2775L244.441 54.7891L234.721 60.9752L247.976 68.045L260.722 74.6729L266.534 66.2775Z" fill="#ADC4FF"/>
<path d="M260.722 74.6729L270.069 79.5333L266.534 66.2775L260.722 74.6729Z" fill="white"/>
<path d="M270.069 79.5333L282.441 91.0217L292.162 85.7194L270.069 68.9592L266.534 66.2775L270.069 79.5333Z" fill="#ADC4FF"/>
<path d="M270.069 68.9592L292.162 85.7194L302.767 102.384L307.186 91.0217L292.162 78.6496L270.069 68.9592Z" fill="#799DF7"/>
<path d="M302.767 102.384L292.162 85.7194L282.441 91.0217L296.581 108.696L302.767 102.384Z" fill="#ADC4FF"/>
<path d="M285.976 104.278L285.704 113.115L296.581 108.696L282.441 91.0217L285.976 104.278Z" fill="#799DF7"/>
<path d="M285.704 113.115L301 129.022L310.721 121.068L296.581 108.696L285.704 113.115Z" fill="#3D64C7"/>
<path d="M319.558 120.184L304.534 105.161L302.767 102.384L296.581 108.696L310.721 121.068L319.558 120.184Z" fill="white"/>
<path d="M315.139 136.091L323.976 134.324L319.558 120.184L310.721 121.068L315.139 136.091Z" fill="white"/>
<path d="M301 129.022L315.139 136.091L310.721 121.068L301 129.022Z" fill="#3D64C7"/>
<path d="M302.767 102.384L322.209 96.324L307.186 91.0217L302.767 102.384Z" fill="#799DF7"/>
<path d="M322.209 96.324L317.79 87.4868L307.186 91.0217L322.209 96.324Z" fill="white"/>
<path d="M317.79 87.4868L292.162 78.6496L307.186 91.0217L317.79 87.4868Z" fill="white"/>
<path d="M236.488 93.6729L256.814 105.161L268.302 108.696L266.534 94.1549L245.325 81.3008L236.488 93.6729Z" fill="#ADC4FF"/>
<path d="M268.302 108.696L274.488 98.9752L266.534 94.1549L268.302 108.696Z" fill="white"/>
<path d="M268.302 108.696L271.837 118.417L278.907 117.533L274.488 98.9752L268.302 108.696Z" fill="#ADC4FF"/>
<path d="M285.522 115.766L274.488 98.9752L278.907 117.533L289.511 134.324L290.881 123.921L285.522 115.766Z" fill="white"/>
<path d="M271.837 118.417L285.522 138.742L289.511 134.324L278.907 117.533L271.837 118.417Z" fill="#ADC4FF"/>
<path d="M268.302 108.696L260.348 118.417H271.837L268.302 108.696Z" fill="#799DF7"/>
<path d="M256.814 105.161L260.348 118.417L268.302 108.696L256.814 105.161Z" fill="#ADC4FF"/>
<path d="M232.069 99.9742L260.348 118.417L256.814 105.161L236.488 93.6729L232.069 99.9742Z" fill="#799DF7"/>
<path d="M260.348 118.417L277.139 138.742H285.522L271.837 118.417H260.348Z" fill="#799DF7"/>
<path d="M285.522 138.742H277.139L280.674 144.929L285.522 138.742Z" fill="white"/>
<path d="M285.522 138.742L297.465 157.3L301.883 153.765L289.511 134.324L285.522 138.742Z" fill="#ADC4FF"/>
<path d="M289.511 134.324L295.697 131.672L290.881 123.921L289.511 134.324Z" fill="white"/>
<path d="M307.186 153.766L295.697 131.672L289.511 134.324L301.883 153.765L307.186 153.766Z" fill="white"/>
<path d="M307.186 170.557V153.766L301.883 153.765L297.465 157.3L307.186 170.557Z" fill="white"/>
<path d="M294.814 167.905L307.186 170.557L297.465 157.3L294.814 167.905Z" fill="white"/>
<path d="M280.674 144.929L294.814 167.905L297.465 157.3L285.522 138.742L280.674 144.929Z" fill="#799DF7"/>
<path d="M262.116 170.557L274.488 155.533L265.651 148.464L260.348 159.068L262.116 170.557Z" fill="#799DF7"/>
<path d="M256.814 144.929L248.86 159.068H260.348L265.651 148.464L256.814 144.929Z" fill="#3D64C7"/>
<path d="M248.86 159.068V167.905L260.348 159.068H248.86Z" fill="#799DF7"/>
<path d="M248.86 167.905L262.116 170.557L260.348 159.068L248.86 167.905Z" fill="#3D64C7"/>
<path d="M245.325 81.3008L266.534 94.1549V83.9519L246.651 74.6729L245.325 81.3008Z" fill="#799DF7"/>
<path d="M247.976 68.045L246.651 74.6729L266.534 83.9519L270.069 79.5333L260.722 74.6729L247.976 68.045Z" fill="white"/>
<path d="M282.441 91.0217L270.069 79.5333L266.534 83.9519L280.674 97.2078L282.441 91.0217Z" fill="white"/>
<path d="M266.534 94.1549L274.488 98.9752L280.674 97.2078L266.534 83.9519V94.1549Z" fill="#3D64C7"/>
<path d="M274.488 98.9752L285.522 115.766L285.704 113.115L285.976 104.278L282.441 91.0217L280.674 97.2078L274.488 98.9752Z" fill="#3D64C7"/>
<path d="M277.139 138.742L271.189 132.557L265.651 148.464L274.488 155.533L277.139 138.742Z" fill="#799DF7"/>
<path d="M260.348 118.417L256.814 144.929L265.651 148.464L271.189 132.557L260.348 118.417Z" fill="#3D64C7"/>
<path d="M260.348 118.417L256.814 144.929M260.348 118.417L277.139 138.742M260.348 118.417L232.069 99.9742M260.348 118.417L256.814 105.161M260.348 118.417L268.302 108.696M260.348 118.417H271.837M260.348 118.417L271.189 132.557M280.674 144.929L294.814 167.905M280.674 144.929L277.139 138.742M280.674 144.929L285.522 138.742M294.814 167.905L307.186 170.557M294.814 167.905L297.465 157.3M307.186 170.557V153.766M307.186 170.557L297.465 157.3M307.186 153.766L295.697 131.672M307.186 153.766L301.883 153.765M295.697 131.672L289.511 134.324M295.697 131.672L290.881 123.921M274.488 98.9752L285.522 115.766M274.488 98.9752L278.907 117.533M274.488 98.9752L268.302 108.696M274.488 98.9752L266.534 94.1549M274.488 98.9752L280.674 97.2078M245.325 81.3008L266.534 94.1549M245.325 81.3008L236.488 93.6729M245.325 81.3008H225M245.325 81.3008L246.651 74.6729M256.814 144.929L248.86 159.068M256.814 144.929L265.651 148.464M248.86 159.068V167.905M248.86 159.068H260.348M248.86 167.905L262.116 170.557M248.86 167.905L260.348 159.068M262.116 170.557L274.488 155.533M262.116 170.557L260.348 159.068M274.488 155.533L277.139 138.742M274.488 155.533L265.651 148.464M277.139 138.742H285.522M277.139 138.742L271.189 132.557M285.522 115.766L285.704 113.115M285.522 115.766L290.881 123.921M282.441 91.0217L270.069 79.5333M282.441 91.0217L285.976 104.278M282.441 91.0217L292.162 85.7194M282.441 91.0217L296.581 108.696M282.441 91.0217L280.674 97.2078M270.069 79.5333L266.534 83.9519M270.069 79.5333L260.722 74.6729M270.069 79.5333L266.534 66.2775M247.976 68.045L234.721 60.9752M247.976 68.045L229.418 72.4636M247.976 68.045L246.651 74.6729M247.976 68.045L260.722 74.6729M285.704 113.115L301 129.022M285.704 113.115L285.976 104.278M285.704 113.115L296.581 108.696M301 129.022L315.139 136.091M301 129.022L310.721 121.068M315.139 136.091L323.976 134.324L319.558 120.184M315.139 136.091L310.721 121.068M319.558 120.184L304.534 105.161L302.767 102.384M319.558 120.184L310.721 121.068M292.162 85.7194L270.069 68.9592M292.162 85.7194L302.767 102.384M266.534 66.2775L244.441 54.7891M266.534 66.2775L270.069 68.9592M266.534 66.2775L260.722 74.6729M244.441 54.7891L207.325 50.9932L234.721 60.9752M244.441 54.7891L234.721 60.9752M270.069 68.9592L292.162 78.6496M292.162 78.6496L317.79 87.4868M292.162 78.6496L307.186 91.0217M317.79 87.4868L322.209 96.324M317.79 87.4868L307.186 91.0217M322.209 96.324L302.767 102.384M322.209 96.324L307.186 91.0217M302.767 102.384L296.581 108.696M302.767 102.384L307.186 91.0217M232.069 99.9742L219.697 91.9054L225 81.3008M232.069 99.9742L236.488 93.6729M225 81.3008L236.488 93.6729M225 81.3008L229.418 72.4636M236.488 93.6729L256.814 105.161M256.814 105.161L268.302 108.696M268.302 108.696L271.837 118.417M268.302 108.696L266.534 94.1549M271.837 118.417L285.522 138.742M271.837 118.417L278.907 117.533M285.522 138.742L289.511 134.324M285.522 138.742L297.465 157.3M297.465 157.3L301.883 153.765M301.883 153.765L289.511 134.324M289.511 134.324L290.881 123.921M289.511 134.324L278.907 117.533M266.534 94.1549V83.9519M229.418 72.4636L234.721 60.9752M246.651 74.6729L266.534 83.9519M266.534 83.9519L280.674 97.2078M285.976 104.278L280.674 97.2078M296.581 108.696L310.721 121.068M265.651 148.464L260.348 159.068M265.651 148.464L271.189 132.557" stroke="#003F76" stroke-width="1.76744" stroke-linecap="round"/>
<path d="M256.814 144.931L260.349 118.419L278.023 144.047L274.488 155.535L262.116 170.558L248.86 167.907V159.07L256.814 144.931Z" stroke="#003F76" stroke-width="5.30233" stroke-linecap="round"/>
<path d="M219.697 91.9072L232.069 99.976L260.348 118.419" stroke="#003F76" stroke-width="5.30233" stroke-linecap="round"/>
</svg>
