<svg width="380" height="380" viewBox="0 0 380 380" fill="none" xmlns="http://www.w3.org/2000/svg">
<rect width="380" height="380" fill="white"/>
<path d="M258.047 90.1393C258.047 102.341 213.785 99.8602 190.884 106.046C164.296 113.228 103.396 144.76 103.396 132.558C103.396 120.357 173.138 78.2026 198.03 78.2026C222.921 78.2026 258.047 77.9376 258.047 90.1393Z" fill="#E7DFD1" stroke="#302207" stroke-width="5.30233" stroke-linecap="round" stroke-dasharray="10.6 10.6"/>
<path d="M140.855 203.691C129.368 203.691 132.02 191.518 113.462 178.409C95.0488 167.145 88.0391 153.747 85.9338 145.636L63.9785 141.89C48.4265 108.18 64.5676 75.4072 74.5822 63.2342C86.0695 64.1706 107.277 64.1698 118.761 60.4243C130.246 56.6788 148.808 49.1884 160.292 48.2521C171.777 47.3157 232.577 53.4959 242.474 55.7432C246.284 56.6085 253.801 60.2784 262.009 65.1062C262.009 65.1062 300.556 84.7701 312.889 87.5793C325.223 90.3884 316.315 104.622 301.44 101.626C305.784 108.208 310.431 114.28 317.307 120.353C327.911 129.716 321.019 140.017 311.122 136.271C301.225 132.525 290.83 119.307 285.442 114L301.402 144.698C310.238 158.744 309.963 169.981 301.402 169.981C292.841 169.981 285.057 154.51 277.544 140.953C277.104 145.322 274.903 153.081 272.517 156.871C267.213 165.299 259.813 173.737 250.093 164.372C243.224 157.755 253.958 151.254 255.725 145.636C257.493 140.017 259.699 117.543 259.699 117.543C248.704 108.777 231.761 98.4732 219.499 91.3256C203.947 92.0747 175.936 89.6911 175.317 90.3892C174.699 91.0873 168.79 98.9689 152 109.582C135.209 120.195 122.962 141.256 128.485 148.445C159.412 188.709 147.041 203.691 140.855 203.691Z" fill="white"/>
<path d="M85.1847 140.017C85.1175 141.3 85.3111 143.236 85.9338 145.636M244.849 81.0246L272.517 97.8803L285.442 114M85.9338 145.636C88.0391 153.747 95.0488 167.145 113.462 178.409C132.02 191.518 129.368 203.691 140.855 203.691C147.041 203.691 159.412 188.709 128.485 148.445C122.962 141.256 135.209 120.195 152 109.582C168.79 98.9689 174.699 91.0873 175.317 90.3892C175.936 89.6911 203.947 92.0747 219.499 91.3256C231.761 98.4732 248.705 108.777 259.699 117.543M85.9338 145.636L63.9785 141.89C48.4265 108.18 64.5676 75.4072 74.5822 63.2342C86.0695 64.1706 107.277 64.1698 118.761 60.4243C130.246 56.6788 148.808 49.1884 160.292 48.2521C171.777 47.3157 232.577 53.4959 242.474 55.7432C246.284 56.6085 253.801 60.2784 262.009 65.1062M259.699 117.543C264.549 121.41 268.241 124.978 269.864 127.844C271.337 130.445 274.716 135.85 277.544 140.953M259.699 117.543C259.699 117.543 257.493 140.017 255.725 145.636C253.958 151.254 243.224 157.755 250.093 164.372C259.813 173.737 267.213 165.299 272.517 156.871C274.903 153.081 277.104 145.322 277.544 140.953M277.544 140.953C285.057 154.51 292.841 169.981 301.402 169.981C309.963 169.981 310.238 158.744 301.402 144.698L285.442 114M285.442 114C286.737 108.071 285.955 96.0073 282.846 92.2612C279.736 88.515 259.87 74.7821 247.5 67.9153M285.442 114C290.83 119.307 301.225 132.525 311.122 136.271C321.019 140.017 327.911 129.716 317.307 120.353C310.431 114.28 305.784 108.208 301.44 101.626M262.009 65.1062C275.117 72.8162 289.986 83.4794 294.333 90.3892C296.818 94.3391 299.084 98.0575 301.44 101.626M262.009 65.1062C262.009 65.1062 300.556 84.7701 312.889 87.5793C325.223 90.3884 316.315 104.622 301.44 101.626" stroke="#302207" stroke-width="5.30233" stroke-linecap="round" stroke-dasharray="10.6 10.6"/>
<path d="M291.093 218.279C291.093 255.86 278.432 286.325 262.813 286.325C247.195 286.325 234.534 255.86 234.534 218.279C234.534 180.698 247.195 150.232 262.813 150.232C278.432 150.232 291.093 180.698 291.093 218.279Z" fill="#E7DFD1"/>
<path d="M272.534 218.279C272.534 232.433 268.182 243.907 262.813 243.907C257.445 243.907 253.093 232.433 253.093 218.279C253.093 204.125 257.445 192.651 262.813 192.651C268.182 192.651 272.534 204.125 272.534 218.279Z" fill="#BFAC89"/>
<path d="M234.534 218.279C234.534 180.698 247.195 150.232 262.813 150.232H162.069C140.594 150.232 123.186 180.698 123.186 218.279V341.116C125.248 339.349 130.609 335.814 135.558 335.814C141.744 335.814 142.627 341.116 147.93 341.116C153.232 341.116 155 335.814 161.186 335.814C167.372 335.814 169.139 341.116 174.441 341.116C179.744 341.116 183.279 335.814 187.697 335.814C192.116 335.814 196.534 341.116 201.837 341.116C207.139 341.116 209.79 335.814 215.093 335.814C223.046 335.814 223.046 341.59 234.534 341.59V286.325V218.279Z" fill="white"/>
<path d="M262.813 286.325C247.195 286.325 234.534 255.86 234.534 218.279V286.325H262.813Z" fill="#BFAC89"/>
<path d="M262.813 286.325C278.432 286.325 291.093 255.86 291.093 218.279C291.093 180.698 278.432 150.232 262.813 150.232M262.813 286.325C247.195 286.325 234.534 255.86 234.534 218.279M262.813 286.325H234.534M234.534 218.279C234.534 180.698 247.195 150.232 262.813 150.232M234.534 218.279V286.325M262.813 150.232H162.069C140.594 150.232 123.186 180.698 123.186 218.279V341.116C125.248 339.349 130.609 335.814 135.558 335.814C141.744 335.814 142.627 341.116 147.93 341.116C153.232 341.116 155 335.814 161.186 335.814C167.372 335.814 169.139 341.116 174.441 341.116C179.744 341.116 183.279 335.814 187.697 335.814C192.116 335.814 196.534 341.116 201.837 341.116C207.139 341.116 209.79 335.814 215.093 335.814C223.046 335.814 223.046 341.59 234.534 341.59V286.325M272.534 218.279C272.534 232.433 268.182 243.907 262.813 243.907C257.445 243.907 253.093 232.433 253.093 218.279C253.093 204.125 257.445 192.651 262.813 192.651C268.182 192.651 272.534 204.125 272.534 218.279Z" stroke="#302207" stroke-width="5.30233"/>
<path d="M206.256 215.628C206.256 215.628 213.326 216.512 220.395 215.628" stroke="#302207" stroke-width="5.30233" stroke-linecap="round"/>
<path d="M123.186 215.628C123.186 215.628 130.255 216.512 137.325 215.628" stroke="#302207" stroke-width="5.30233" stroke-linecap="round"/>
<path d="M149.697 215.628C149.697 215.628 156.767 216.512 163.837 215.628" stroke="#302207" stroke-width="5.30233" stroke-linecap="round"/>
<path d="M177.977 214.254C177.977 214.254 185.046 213.37 192.116 214.254" stroke="#302207" stroke-width="5.30233" stroke-linecap="round"/>
<path d="M269.863 127.844C268.24 124.978 264.548 121.411 259.699 117.544C259.699 117.544 257.492 140.018 255.725 145.636C253.958 151.254 243.224 157.756 250.092 164.373C259.812 173.738 267.212 165.299 272.517 156.872C274.903 153.081 277.104 145.323 277.543 140.953C274.715 135.851 271.336 130.446 269.863 127.844Z" fill="#E7DFD1" stroke="#302207" stroke-width="5.30233" stroke-linecap="round" stroke-dasharray="10.6 10.6"/>
</svg>
