<svg width="381" height="380" viewBox="0 0 381 380" fill="none" xmlns="http://www.w3.org/2000/svg">
<rect width="380" height="380" transform="translate(0.511719)" fill="white"/>
<path d="M258.558 90.1393C258.558 102.341 214.296 99.8602 191.396 106.046C164.808 113.228 103.907 144.76 103.907 132.558C103.907 120.357 173.65 78.2026 198.541 78.2026C223.433 78.2026 258.558 77.9376 258.558 90.1393Z" fill="#CFAF97" stroke="#302207" stroke-width="5.30233" stroke-linecap="round"/>
<path d="M141.367 203.691C129.88 203.691 132.532 191.518 113.974 178.409C95.5605 167.145 88.5508 153.747 86.4455 145.636L64.4902 141.89C48.9382 108.18 65.0793 75.4072 75.0939 63.2342C86.5812 64.1706 107.789 64.1698 119.273 60.4243C130.758 56.6788 149.32 49.1884 160.804 48.2521C172.289 47.3157 233.089 53.4959 242.985 55.7432C246.796 56.6085 254.313 60.2784 262.521 65.1062C262.521 65.1062 301.068 84.7701 313.401 87.5793C325.734 90.3884 316.827 104.622 301.951 101.626C306.296 108.208 310.943 114.28 317.819 120.353C328.423 129.716 321.53 140.017 311.634 136.271C301.737 132.525 291.342 119.307 285.953 114L301.914 144.698C310.75 158.744 310.475 169.981 301.914 169.981C293.353 169.981 285.569 154.51 278.055 140.953C277.616 145.322 275.415 153.081 273.029 156.871C267.724 165.299 260.325 173.737 250.605 164.372C243.736 157.755 254.47 151.254 256.237 145.636C258.004 140.017 260.211 117.543 260.211 117.543C249.216 108.777 232.272 98.4732 220.011 91.3256C204.459 92.0747 176.448 89.6911 175.829 90.3892C175.21 91.0873 169.302 98.9689 152.511 109.582C135.721 120.195 123.474 141.256 128.996 148.445C159.924 188.709 147.553 203.691 141.367 203.691Z" fill="#FFDBBF"/>
<path d="M85.6964 140.017C85.6292 141.3 85.8228 143.236 86.4455 145.636M245.361 81.0246L273.029 97.8803L285.953 114M86.4455 145.636C88.5508 153.747 95.5605 167.145 113.974 178.409C132.532 191.518 129.88 203.691 141.367 203.691C147.553 203.691 159.924 188.709 128.996 148.445C123.474 141.256 135.721 120.195 152.511 109.582C169.302 98.9689 175.21 91.0873 175.829 90.3892C176.448 89.6911 204.459 92.0747 220.011 91.3256C232.272 98.4732 249.216 108.777 260.211 117.543M86.4455 145.636L64.4902 141.89C48.9382 108.18 65.0793 75.4072 75.0939 63.2342C86.5812 64.1706 107.789 64.1698 119.273 60.4243C130.758 56.6788 149.32 49.1884 160.804 48.2521C172.289 47.3157 233.089 53.4959 242.985 55.7432C246.796 56.6085 254.313 60.2784 262.521 65.1062M260.211 117.543C265.06 121.41 268.753 124.978 270.375 127.844C271.848 130.445 275.228 135.85 278.055 140.953M260.211 117.543C260.211 117.543 258.004 140.017 256.237 145.636C254.47 151.254 243.736 157.755 250.605 164.372C260.325 173.737 267.724 165.299 273.029 156.871C275.415 153.081 277.616 145.322 278.055 140.953M278.055 140.953C285.569 154.51 293.353 169.981 301.914 169.981C310.475 169.981 310.75 158.744 301.914 144.698L285.953 114M285.953 114C287.249 108.071 286.466 96.0073 283.357 92.2612C280.248 88.515 260.382 74.7821 248.012 67.9153M285.953 114C291.342 119.307 301.737 132.525 311.634 136.271C321.53 140.017 328.423 129.716 317.819 120.353C310.943 114.28 306.296 108.208 301.951 101.626M262.521 65.1062C275.629 72.8162 290.497 83.4794 294.845 90.3892C297.33 94.3391 299.596 98.0575 301.951 101.626M262.521 65.1062C262.521 65.1062 301.068 84.7701 313.401 87.5793C325.734 90.3884 316.827 104.622 301.951 101.626" stroke="#302207" stroke-width="5.30233" stroke-linecap="round"/>
<path d="M291.604 218.279C291.604 255.86 278.943 286.325 263.325 286.325C247.707 286.325 235.046 255.86 235.046 218.279C235.046 180.698 247.707 150.232 263.325 150.232C278.943 150.232 291.604 180.698 291.604 218.279Z" fill="#E7DFD1"/>
<path d="M273.046 218.279C273.046 232.433 268.694 243.907 263.325 243.907C257.956 243.907 253.604 232.433 253.604 218.279C253.604 204.125 257.956 192.651 263.325 192.651C268.694 192.651 273.046 204.125 273.046 218.279Z" fill="#BFAC89"/>
<path d="M235.046 218.279C235.046 180.698 247.707 150.232 263.325 150.232H162.581C141.106 150.232 123.697 180.698 123.697 218.279V341.116C125.759 339.349 131.121 335.814 136.069 335.814C142.255 335.814 143.139 341.116 148.441 341.116C153.744 341.116 155.511 335.814 161.697 335.814C167.883 335.814 169.651 341.116 174.953 341.116C180.255 341.116 183.79 335.814 188.209 335.814C192.627 335.814 197.046 341.116 202.348 341.116C207.651 341.116 210.302 335.814 215.604 335.814C223.558 335.814 223.558 341.59 235.046 341.59V286.325V218.279Z" fill="white"/>
<path d="M263.325 286.325C247.707 286.325 235.046 255.86 235.046 218.279V286.325H263.325Z" fill="#BFAC89"/>
<path d="M263.325 286.325C278.943 286.325 291.604 255.86 291.604 218.279C291.604 180.698 278.943 150.232 263.325 150.232M263.325 286.325C247.707 286.325 235.046 255.86 235.046 218.279M263.325 286.325H235.046M235.046 218.279C235.046 180.698 247.707 150.232 263.325 150.232M235.046 218.279V286.325M263.325 150.232H162.581C141.106 150.232 123.697 180.698 123.697 218.279V341.116C125.759 339.349 131.121 335.814 136.069 335.814C142.255 335.814 143.139 341.116 148.441 341.116C153.744 341.116 155.511 335.814 161.697 335.814C167.883 335.814 169.651 341.116 174.953 341.116C180.255 341.116 183.79 335.814 188.209 335.814C192.627 335.814 197.046 341.116 202.348 341.116C207.651 341.116 210.302 335.814 215.604 335.814C223.558 335.814 223.558 341.59 235.046 341.59V286.325M273.046 218.279C273.046 232.433 268.694 243.907 263.325 243.907C257.956 243.907 253.604 232.433 253.604 218.279C253.604 204.125 257.956 192.651 263.325 192.651C268.694 192.651 273.046 204.125 273.046 218.279Z" stroke="#302207" stroke-width="5.30233"/>
<path d="M206.768 215.628C206.768 215.628 213.837 216.512 220.907 215.628" stroke="#302207" stroke-width="5.30233" stroke-linecap="round"/>
<path d="M123.697 215.628C123.697 215.628 130.767 216.512 137.837 215.628" stroke="#302207" stroke-width="5.30233" stroke-linecap="round"/>
<path d="M150.209 215.628C150.209 215.628 157.279 216.512 164.349 215.628" stroke="#302207" stroke-width="5.30233" stroke-linecap="round"/>
<path d="M178.488 214.254C178.488 214.254 185.558 213.37 192.628 214.254" stroke="#302207" stroke-width="5.30233" stroke-linecap="round"/>
<path d="M270.375 127.844C268.752 124.978 265.06 121.411 260.211 117.544C260.211 117.544 258.004 140.018 256.237 145.636C254.469 151.254 243.736 157.756 250.604 164.373C260.324 173.738 267.724 165.299 273.029 156.872C275.415 153.081 277.616 145.323 278.055 140.953C275.227 135.851 271.848 130.446 270.375 127.844Z" fill="#FFDBBF" stroke="#302207" stroke-width="5.30233" stroke-linecap="round"/>
</svg>
