<svg width="381" height="380" viewBox="0 0 381 380" fill="none" xmlns="http://www.w3.org/2000/svg">
<rect width="380" height="380" transform="translate(0.0234375)" fill="white"/>
<path d="M236.818 92.9082C250.377 90.2389 263.458 78.2287 251 63.6274C238.542 49.0262 294.303 76.8841 290 91.7382C285.697 106.592 264.71 92.6643 272.941 98.3333C281.171 104.002 223.26 95.5775 236.818 92.9082Z" fill="#D9D9D9" stroke="#302207" stroke-width="5.30233" stroke-linecap="round"/>
<path d="M258.07 90.1393C258.07 102.341 213.808 99.8602 190.907 106.046C164.32 113.228 103.419 144.76 103.419 132.558C103.419 120.357 173.162 78.2026 198.053 78.2026C222.944 78.2026 258.07 77.9376 258.07 90.1393Z" fill="#302207" stroke="#302207" stroke-width="5.30233" stroke-linecap="round"/>
<path d="M142.302 200.605C129.93 206.531 109.604 180.937 109.604 168.225C113.464 156.926 118.703 155.956 127.279 163.489L127.355 163.556C134.433 169.772 159.926 192.164 142.302 200.605Z" fill="#D9D9D9" stroke="#302207" stroke-width="5.30233" stroke-linecap="round"/>
<path d="M114.907 189.983C104.67 195.565 95.4648 179.377 95.4648 171.424C97.5858 164.354 104.891 169.362 109.604 174.076C113.434 177.905 124.628 184.682 114.907 189.983Z" fill="#8991B1" stroke="#302207" stroke-width="5.30233" stroke-linecap="round"/>
<path d="M74.6056 63.2344C86.0929 64.1708 103.422 76.2106 114.907 72.4651C102.535 115.277 85.3346 143.237 85.9572 145.636L64.002 141.89C48.4499 108.181 64.5911 75.4073 74.6056 63.2344Z" fill="#302207" stroke="#302207" stroke-width="5.30233" stroke-linecap="round"/>
<circle cx="105.187" cy="122.837" r="25.6279" fill="#8991B1" stroke="#302207" stroke-width="5.30233" stroke-linecap="round"/>
<circle cx="105.186" cy="122.837" r="13.2558" fill="#8991B1" stroke="#302207" stroke-width="5.30233" stroke-linecap="round"/>
<path d="M102.535 175.562C88.3958 172.734 83.0935 152.879 79.5586 141.98C79.5586 122.892 104.892 126.368 117.559 130.492C117.559 130.492 122.861 142.864 124.628 150.818C126.396 158.772 116.675 178.39 102.535 175.562Z" fill="#D9D9D9" stroke="#302207" stroke-width="5.30233" stroke-linecap="round"/>
<path d="M291.116 218.279C291.116 255.86 278.455 286.325 262.837 286.325C247.219 286.325 234.558 255.86 234.558 218.279C234.558 180.698 247.219 150.232 262.837 150.232C278.455 150.232 291.116 180.698 291.116 218.279Z" fill="#E7DFD1"/>
<path d="M272.558 218.279C272.558 232.433 268.206 243.907 262.837 243.907C257.468 243.907 253.116 232.433 253.116 218.279C253.116 204.125 257.468 192.651 262.837 192.651C268.206 192.651 272.558 204.125 272.558 218.279Z" fill="#BFAC89"/>
<path d="M234.558 218.279C234.558 180.698 247.219 150.232 262.837 150.232H162.093C140.618 150.232 123.209 180.698 123.209 218.279V341.116C125.271 339.349 130.632 335.814 135.581 335.814C141.767 335.814 142.651 341.116 147.953 341.116C153.255 341.116 155.023 335.814 161.209 335.814C167.395 335.814 169.162 341.116 174.465 341.116C179.767 341.116 183.302 335.814 187.721 335.814C192.139 335.814 196.558 341.116 201.86 341.116C207.162 341.116 209.814 335.814 215.116 335.814C223.069 335.814 223.069 341.59 234.558 341.59V286.325V218.279Z" fill="white"/>
<path d="M262.837 286.325C247.219 286.325 234.558 255.86 234.558 218.279V286.325H262.837Z" fill="#BFAC89"/>
<path d="M262.837 286.325C278.455 286.325 291.116 255.86 291.116 218.279C291.116 180.698 278.455 150.232 262.837 150.232M262.837 286.325C247.219 286.325 234.558 255.86 234.558 218.279M262.837 286.325H234.558M234.558 218.279C234.558 180.698 247.219 150.232 262.837 150.232M234.558 218.279V286.325M262.837 150.232H162.093C140.618 150.232 123.209 180.698 123.209 218.279V341.116C125.271 339.349 130.632 335.814 135.581 335.814C141.767 335.814 142.651 341.116 147.953 341.116C153.255 341.116 155.023 335.814 161.209 335.814C167.395 335.814 169.162 341.116 174.465 341.116C179.767 341.116 183.302 335.814 187.721 335.814C192.139 335.814 196.558 341.116 201.86 341.116C207.162 341.116 209.814 335.814 215.116 335.814C223.069 335.814 223.069 341.59 234.558 341.59V286.325M272.558 218.279C272.558 232.433 268.206 243.907 262.837 243.907C257.468 243.907 253.116 232.433 253.116 218.279C253.116 204.125 257.468 192.651 262.837 192.651C268.206 192.651 272.558 204.125 272.558 218.279Z" stroke="#302207" stroke-width="5.30233"/>
<path d="M206.279 215.628C206.279 215.628 213.349 216.512 220.419 215.628" stroke="#302207" stroke-width="5.30233" stroke-linecap="round"/>
<path d="M123.209 215.628C123.209 215.628 130.279 216.512 137.349 215.628" stroke="#302207" stroke-width="5.30233" stroke-linecap="round"/>
<path d="M149.721 215.628C149.721 215.628 156.79 216.512 163.86 215.628" stroke="#302207" stroke-width="5.30233" stroke-linecap="round"/>
<path d="M178 214.254C178 214.254 185.07 213.37 192.14 214.254" stroke="#302207" stroke-width="5.30233" stroke-linecap="round"/>
<path d="M267.79 155.536C260.72 156.419 259.599 153.155 257.188 149.348C238.627 159.069 249.221 174.66 253.344 173.073C257.468 171.486 274.86 154.652 267.79 155.536Z" fill="#D9D9D9" stroke="#302207" stroke-width="5.30233" stroke-linecap="round"/>
<path d="M273.433 104.167C280.165 103.394 291.65 103.395 291.651 93.6741C291.652 83.9536 316.395 121.069 309.326 116.651C302.258 112.233 295.814 117.627 298.723 123.721C301.633 129.816 266.702 104.939 273.433 104.167Z" fill="#D9D9D9" stroke="#302207" stroke-width="5.30233" stroke-linecap="round"/>
<circle cx="284.581" cy="93.6741" r="8.83721" fill="#8991B1" stroke="#302207" stroke-width="5.30233" stroke-linecap="round"/>
<path d="M232.443 97.2104C245.842 94.7218 253.12 81.8363 240.414 66.2233C227.709 50.6103 289.884 91.3142 285.465 101.919C281.046 112.523 260.378 102.307 268.681 108.447C276.983 114.587 219.043 99.6991 232.443 97.2104Z" fill="#D9D9D9" stroke="#302207" stroke-width="5.30233" stroke-linecap="round"/>
<path d="M259.838 113.999C263.374 131.675 274.959 111.194 284.582 102.512C294.206 93.8302 277.325 161.101 269.559 153.768C261.793 146.436 261.087 140.983 257.188 146.698C253.289 152.414 256.302 96.3239 259.838 113.999Z" fill="#D9D9D9" stroke="#302207" stroke-width="5.30233" stroke-linecap="round"/>
<circle cx="279.279" cy="106.046" r="8.83721" fill="#8991B1" stroke="#302207" stroke-width="5.30233" stroke-linecap="round"/>
<path d="M271.327 128.139C277.513 126.484 280.185 125.487 283.698 120.185C287.21 114.884 298.723 145.812 298.723 145.812C290.086 135.397 285.023 143.018 286.349 149.349C287.674 155.68 265.14 129.794 271.327 128.139Z" fill="#D9D9D9" stroke="#302207" stroke-width="5.30233" stroke-linecap="round"/>
<path d="M234.208 98.092C242.162 95.8914 244.813 94.5584 242.162 83.9526C238.627 63.6282 282.356 108.034 278.394 112.232C274.432 116.43 265.447 113.462 265.14 121.953C264.833 130.444 219.704 100.465 234.208 98.092Z" fill="#D9D9D9" stroke="#302207" stroke-width="5.30233" stroke-linecap="round"/>
<path d="M310.209 117.536C312.079 124.411 306.008 123.876 302.257 126.373C310.21 143.164 326.982 134.151 325.303 130.064C323.623 125.977 308.339 110.66 310.209 117.536Z" fill="#D9D9D9" stroke="#302207" stroke-width="5.30233" stroke-linecap="round"/>
<circle cx="273.977" cy="118.418" r="8.83721" fill="#8991B1" stroke="#302207" stroke-width="5.30233" stroke-linecap="round"/>
<circle cx="291.651" cy="146.698" r="7.06977" fill="#8991B1" stroke="#302207" stroke-width="5.30233" stroke-linecap="round"/>
<circle cx="304.023" cy="120.186" r="7.06977" fill="#8991B1" stroke="#302207" stroke-width="5.30233" stroke-linecap="round"/>
<circle cx="263.372" cy="150.233" r="7.06977" fill="#8991B1" stroke="#302207" stroke-width="5.30233" stroke-linecap="round"/>
<circle cx="246.581" cy="64.5119" r="9.72093" fill="#8991B1" stroke="#302207" stroke-width="5.30233" stroke-linecap="round"/>
<circle cx="247.465" cy="76.0002" r="10.6047" fill="#8991B1" stroke="#302207" stroke-width="5.30233" stroke-linecap="round"/>
<circle cx="236.861" cy="90.1398" r="10.6047" fill="#8991B1" stroke="#302207" stroke-width="5.30233" stroke-linecap="round"/>
<path d="M298.721 149.349C297.837 156.419 293.419 152.884 289 153.768C289 172.326 307.558 170.557 307.558 166.139C307.558 161.721 299.605 142.278 298.721 149.349Z" fill="#D9D9D9" stroke="#302207" stroke-width="5.30233" stroke-linecap="round"/>
<path d="M109.606 64.5118C111.374 61.8606 168.815 53.0234 168.815 53.0234L176.768 82.1862C176.768 82.1862 135.233 117.535 131.699 118.419C128.164 119.303 103.419 118.419 101.652 116.651C99.8846 114.884 107.839 67.163 109.606 64.5118Z" fill="#D9D9D9" stroke="#302207" stroke-width="5.30233" stroke-linecap="round"/>
<path d="M224.085 91.0078C218.255 95.9731 167.055 103.017 166.987 94.6376C166.919 86.2587 154.897 49.1716 158.812 47.8649C162.726 46.5582 245.931 30.9639 248.754 43.5829C253.411 64.3935 231.373 84.8012 224.085 91.0078Z" fill="#D9D9D9" stroke="#302207" stroke-width="5.30233" stroke-linecap="round"/>
<path d="M220.953 66.2793L239.511 72.4653" stroke="#302207" stroke-width="5.30233" stroke-linecap="round"/>
<path d="M231.559 52.1396L247.466 55.6745" stroke="#302207" stroke-width="5.30233" stroke-linecap="round"/>
<path d="M100.768 113.116L162.628 76" stroke="#302207" stroke-width="5.30233" stroke-linecap="round"/>
</svg>
